# xmcd CD database file
#
# Track frame offsets:
#	150
#	24813
#	48781
#	65352
#	87172
#	122941
#	154119
#	176094
#	200593
#	225101
#
# Disc length: 3106 seconds
#
# Revision: 0
# Processed by: cddbd v1.5.2PL0 Copyright (c) Steve Scherf et al.
# Submitted via: CDex 1.70beta2
#
DISCID=720c200a
DTITLE=Cattleya - Diary
DYEAR=2007
DGENRE=Jazz
TTITLE0=Diary
TTITLE1=Song For Pablo
TTITLE2=I Call You
TTITLE3=Inner
TTITLE4=Nouvelle
TTITLE5=Red Eye
TTITLE6=Relax Song
TTITLE7=Whiter Shade Of Pale
TTITLE8=A Table
TTITLE9=Trio Impro
EXTD=YEAR: 2007
EXTT0=
EXTT1=
EXTT2=
EXTT3=
EXTT4=
EXTT5=
EXTT6=
EXTT7=
EXTT8=
EXTT9=
PLAYORDER=
